<svg xmlns="http://www.w3.org/2000/svg" viewBox="0 0 48 48" fill="none">
  <defs>
    <linearGradient id="tg-bg" x1="6" y1="4" x2="42" y2="44" gradientUnits="userSpaceOnUse">
      <stop stop-color="#10B981" />
      <stop stop-color="#047857" />
    </linearGradient>
  </defs>
  <rect x="2" y="2" width="44" height="44" rx="12" fill="url(#tg-bg)" />
  <circle cx="36" cy="12" r="2.5" fill="#A7F3D0" />
  <circle cx="24" cy="26" r="13.5" fill="#FFFFFF" />
  <path
    fill="#0F172A"
    d="M24 13.8l3.55 2.58-1.36 4.27H21.8l-1.36-4.27L24 13.8z"
  />
  <path
    fill="#0F172A"
    d="M17.55 21.9l2.42-3.12 4.24 1.35.51 4.43-3.68 1.54-3.49-4.2z"
  />
  <path
    fill="#0F172A"
    d="M30.45 21.9l-3.49 4.2-3.68-1.54.51-4.43 4.24-1.35 2.42 3.12z"
  />
  <path
    fill="#0F172A"
    d="M19.85 30.55l1.73-4.25 3.82.19 1.91 3.68-3.91 1.91-3.55-1.53z"
  />
  <path
    fill="#0F172A"
    d="M28.15 30.55l-3.55 1.53-3.91-1.91 1.91-3.68 3.82-.19 1.73 4.25z"
  />
</svg>